<?xml version="1.0" encoding="UTF-8" standalone="no"?>
<svg
   width="139"
   height="20"
   version="1.1"
   id="svg6"
   sodipodi:docname="logoedit.svg"
   inkscape:version="1.3.2 (091e20e, 2023-11-25, custom)"
   xmlns:inkscape="http://www.inkscape.org/namespaces/inkscape"
   xmlns:sodipodi="http://sodipodi.sourceforge.net/DTD/sodipodi-0.dtd"
   xmlns="http://www.w3.org/2000/svg"
   xmlns:svg="http://www.w3.org/2000/svg">
  <sodipodi:namedview
     id="namedview6"
     pagecolor="#ffffff"
     bordercolor="#000000"
     borderopacity="0.25"
     inkscape:showpageshadow="2"
     inkscape:pageopacity="0.0"
     inkscape:pagecheckerboard="0"
     inkscape:deskcolor="#d1d1d1"
     inkscape:zoom="7.1007194"
     inkscape:cx="69.5"
     inkscape:cy="9.9989868"
     inkscape:window-width="1920"
     inkscape:window-height="974"
     inkscape:window-x="-11"
     inkscape:window-y="-11"
     inkscape:window-maximized="1"
     inkscape:current-layer="svg6" />
  <defs
     id="defs2">
    <linearGradient
       id="a"
       x1="72.195%"
       x2="17.503%"
       y1="0%"
       y2="100%">
      <stop
         offset="0%"
         stop-color="#33D35E"
         id="stop1" />
      <stop
         offset="100%"
         stop-color="#2AB6D9"
         id="stop2" />
    </linearGradient>
  </defs>
  <g
     fill="none"
     fill-rule="evenodd"
     id="g6">
    <path
       fill="#2D314D"
       fill-rule="nonzero"
       d="M37.754 15.847c2.852 0 5.152-1.622 5.952-4.216h-3.897c-.376.665-1.14 1.066-2.055 1.066-1.237 0-2.065-.674-2.32-1.978h8.44c.051-.352.081-.694.081-1.037 0-3.335-2.537-5.95-6.201-5.95-3.568 0-6.175 2.564-6.175 6.049 0 3.473 2.628 6.066 6.175 6.066zm2.344-7.297h-4.596c.317-1.129 1.11-1.749 2.252-1.749 1.181 0 2 .613 2.344 1.75zm10.946 7.296c1.32 0 2.5-.434 3.43-1.188l.336.804h3.027V4.093h-2.919l-.4.88c-.94-.775-2.135-1.222-3.474-1.222-3.476 0-5.961 2.505-5.961 6.026 0 3.533 2.485 6.07 5.961 6.07zm.524-3.467c-1.467 0-2.545-1.108-2.545-2.593 0-1.475 1.069-2.583 2.545-2.583 1.466 0 2.544 1.108 2.544 2.583 0 1.485-1.078 2.593-2.544 2.593zm13.123 3.467c3.02 0 5.025-1.554 5.025-3.93 0-2.883-2.387-3.256-4.183-3.575-1.08-.193-1.95-.344-1.95-.99 0-.527.422-.838 1.05-.838.71 0 1.197.337 1.197 1.063h3.667c-.044-2.303-1.92-3.843-4.816-3.843-2.912 0-4.854 1.47-4.854 3.75 0 2.757 2.337 3.289 4.1 3.574 1.092.181 1.952.368 1.952 1.024 0 .587-.543.88-1.116.88-.742 0-1.32-.383-1.32-1.214h-3.77c.036 2.463 1.919 4.1 5.018 4.1zm8.1 3.858c2.936 0 4.344-1.257 5.877-4.736l4.764-10.863h-4.206l-2.249 6.263-2.412-6.263H70.31l4.698 10.43c-.53 1.414-.983 1.804-2.48 1.804H71.45v3.365h1.341zm18.504-3.858c3.5 0 5.973-2.515 5.973-6.048S94.796 3.75 91.295 3.75a5.332 5.332 0 00-2.825.784V0H84.6v15.474h2.897l.37-.844c.923.771 2.102 1.216 3.428 1.216zm-.523-3.467c-1.467 0-2.545-1.108-2.545-2.58 0-1.486 1.078-2.594 2.545-2.594 1.466 0 2.544 1.108 2.544 2.593 0 1.473-1.087 2.58-2.544 2.58zm13.598 3.467c1.32 0 2.5-.434 3.43-1.188l.336.804h3.027V4.093h-2.918l-.401.88c-.939-.775-2.135-1.222-3.474-1.222-3.476 0-5.96 2.505-5.96 6.026 0 3.533 2.484 6.07 5.96 6.07zm.524-3.467c-1.467 0-2.545-1.108-2.545-2.593 0-1.475 1.07-2.583 2.545-2.583 1.467 0 2.545 1.108 2.545 2.583 0 1.485-1.078 2.593-2.545 2.593zm12.653 3.095V9.403c0-1.447.702-2.3 1.923-2.3.986 0 1.483.657 1.483 1.98v6.39h3.915V8.543c0-2.897-1.733-4.773-4.373-4.773-1.47 0-2.733.565-3.58 1.508l-.537-1.172h-2.747v11.369h3.916zm13.748 0v-4.808l2.848 4.808h4.616l-3.902-5.95 3.543-5.419h-4.397l-2.708 4.454V0h-3.916v15.474h3.916z"
       id="path2" />
    <g
       fill="url(#a)"
       id="g5">
      <path
         d="M10.802 0L0 19.704h5.986L16.789 0z"
         id="path3" />
      <path
         opacity=".5"
         d="M18.171 0L7.368 19.704h5.986L24.157 0z"
         id="path4" />
      <path
         opacity=".15"
         d="M25.539 0L14.737 19.704h5.986L31.525 0z"
         id="path5" />
    </g>
  </g>
  <path
     style="fill:#ffffff;stroke:#000000;stroke-width:0.445513;stroke-linecap:round;stroke-linejoin:round;stroke-miterlimit:3.5;stroke-dashoffset:62.7243;paint-order:markers stroke fill"
     d="m 36.849241,15.682669 c -2.478976,-0.296037 -4.485287,-2.129532 -5.036717,-4.602874 -0.854261,-3.8316358 1.921278,-7.2219187 5.911383,-7.2206737 3.544366,0.00111 6.144887,2.4856124 6.144887,5.8707511 v 0.9028526 h -4.242528 -4.242527 l 0.08438,0.42189 c 0.126746,0.63373 0.495973,1.11225 1.093378,1.417024 0.95338,0.486378 2.372205,0.291827 2.998579,-0.411169 0.248736,-0.279162 0.405342,-0.301098 2.14956,-0.301098 h 1.881279 l -0.219428,0.525165 c -0.577653,1.382518 -2.074758,2.694912 -3.566257,3.126257 -1.192568,0.344894 -1.843328,0.404747 -2.955987,0.271875 z m 3.357953,-7.1080231 c 0,-0.047547 -0.140178,-0.3358602 -0.311506,-0.6406969 -0.991665,-1.764431 -3.853139,-1.4978695 -4.40421,0.4102759 l -0.09151,0.3168693 h 2.403614 c 1.321987,0 2.403614,-0.038902 2.403614,-0.086448 z"
     id="path6" />
  <path
     style="fill:#ffffff;stroke:#000000;stroke-width:0.445513;stroke-linecap:round;stroke-linejoin:round;stroke-miterlimit:3.5;stroke-dashoffset:62.7243;paint-order:markers stroke fill"
     d="m 50.20618,15.689639 c -2.657134,-0.33791 -4.48291,-2.144453 -4.956101,-4.903889 -0.209239,-1.2201891 -0.0077,-2.6645892 0.524781,-3.7612711 0.893064,-1.8392822 2.657031,-3.0035836 4.732595,-3.1237361 1.389329,-0.080427 2.408799,0.1318575 3.276805,0.6823305 0.361144,0.2290311 0.684485,0.4164201 0.718534,0.4164201 0.03405,0 0.160224,-0.1901216 0.280387,-0.4224924 l 0.21848,-0.4224924 h 1.404691 1.404692 v 5.633232 5.6332324 H 56.349406 54.887768 L 54.712766,14.99848 c -0.09625,-0.232371 -0.196186,-0.422492 -0.222078,-0.422492 -0.02589,0 -0.27432,0.154212 -0.552063,0.342694 -0.972667,0.660069 -2.356589,0.945926 -3.732445,0.770957 z m 2.358285,-3.44273 c 1.02862,-0.429785 1.584978,-1.293001 1.584978,-2.4591684 0,-1.6698899 -1.308266,-2.8436001 -2.922911,-2.6222885 -1.230267,0.168627 -2.064877,0.9980258 -2.232118,2.2181813 -0.286165,2.0878006 1.670386,3.6570056 3.570051,2.8632756 z"
     id="path7" />
  <path
     style="fill:#ffffff;stroke:#000000;stroke-width:0.445513;stroke-linecap:round;stroke-linejoin:round;stroke-miterlimit:3.5;stroke-dashoffset:62.7243;paint-order:markers stroke fill"
     d="m 64.14843,15.744414 c -2.357337,-0.20423 -4.066524,-1.522596 -4.313913,-3.327499 l -0.09013,-0.657543 h 1.849943 1.849943 v 0.341855 c 0,0.851792 1.515874,1.253351 2.189278,0.579947 0.712142,-0.712142 0.333677,-1.229722 -1.143579,-1.563929 -3.021916,-0.683665 -3.662705,-1.011048 -4.2496,-2.171147 -0.553363,-1.0938166 -0.324562,-2.7919995 0.500651,-3.715885 0.766521,-0.858175 2.228638,-1.3714491 3.906721,-1.3714491 1.459622,0 2.409795,0.2649792 3.319657,0.925769 0.708584,0.5146111 1.391765,1.6706548 1.391765,2.3550738 v 0.3948411 h -1.760385 c -1.617205,0 -1.760385,-0.021133 -1.760385,-0.2598345 0,-0.4397111 -0.533061,-0.7963965 -1.190202,-0.7963965 -0.75585,0 -1.063091,0.2512672 -1.063091,0.8694149 0,0.5925739 0.254446,0.7169807 2.390582,1.1688346 1.713028,0.3623547 2.326911,0.6410316 2.933189,1.3315437 1.071865,1.220787 0.905967,3.42909 -0.346587,4.613472 -0.902208,0.853103 -2.847801,1.418609 -4.41386,1.282932 z"
     id="path8" />
  <path
     style="fill:#ffffff;stroke:#000000;stroke-width:0.445513;stroke-linecap:round;stroke-linejoin:round;stroke-miterlimit:3.5;stroke-dashoffset:62.7243;paint-order:markers stroke fill"
     d="m 71.471631,18.026342 v -1.619554 h 0.919924 c 1.418459,0 2.086976,-0.37716 2.505364,-1.413462 0.195739,-0.484822 0.183118,-0.518225 -2.099809,-5.5576624 -1.263202,-2.7884498 -2.300008,-5.1174392 -2.304013,-5.1755319 -0.004,-0.058093 0.896886,-0.1056231 2.001978,-0.1056231 h 2.00926 l 1.185836,3.0982776 c 0.652209,1.7040527 1.229994,3.0982778 1.283965,3.0982778 0.08301,0 0.657093,-1.5300875 2.047522,-5.4571937 l 0.261779,-0.7393617 h 2.004571 c 1.850501,0 1.997454,0.018942 1.911979,0.2464539 -0.474796,1.2637725 -5.182835,11.7635295 -5.548164,12.3733795 -1.247689,2.082794 -2.676387,2.871555 -5.201308,2.871555 h -0.978884 z"
     id="path9" />
  <path
     style="fill:#ffffff;stroke:#000000;stroke-width:0.445513;stroke-linecap:round;stroke-linejoin:round;stroke-miterlimit:3.5;stroke-dashoffset:62.7243;paint-order:markers stroke fill"
     d="m 90.546426,15.696315 c -0.782653,-0.106707 -1.94575,-0.574073 -2.358712,-0.947798 -0.249386,-0.225691 -0.275534,-0.223868 -0.462845,0.03229 -0.10919,0.149326 -0.198527,0.35445 -0.198527,0.455831 0,0.139598 -0.341765,0.18433 -1.408308,0.18433 H 84.709726 V 7.745694 0.0704154 h 1.830801 1.8308 v 2.2683602 c 0,2.1072485 0.0175,2.2607545 0.246454,2.1612787 1.22861,-0.5338162 1.841576,-0.6541396 3.06307,-0.6012713 1.056001,0.045705 1.424926,0.1285826 2.211144,0.4967218 2.336788,1.0941792 3.658372,3.7247908 3.209185,6.3878772 -0.210677,1.249034 -0.956503,2.762629 -1.686073,3.42175 -1.261472,1.139665 -3.166774,1.723223 -4.868681,1.491183 z m 1.078202,-3.392782 c 0.573305,-0.191606 1.196151,-0.739239 1.499849,-1.318731 0.285217,-0.544229 0.285657,-1.8486048 8.08e-4,-2.3941232 -0.639555,-1.2248164 -2.08374,-1.7743913 -3.313043,-1.2607556 -1.106083,0.4621509 -1.581746,1.2012656 -1.581746,2.4578174 0,0.9163354 0.194086,1.4312824 0.726987,1.9288414 0.721909,0.674032 1.737717,0.897578 2.667145,0.586951 z"
     id="path10" />
  <path
     style="fill:#ffffff;stroke:#000000;stroke-width:0.445513;stroke-linecap:round;stroke-linejoin:round;stroke-miterlimit:3.5;stroke-dashoffset:62.7243;paint-order:markers stroke fill"
     d="m 103.44722,15.676041 c -2.65676,-0.302247 -4.724793,-2.569476 -4.899607,-5.371538 -0.129692,-2.0788032 0.36224,-3.4610178 1.717017,-4.824426 1.19033,-1.1979118 2.04468,-1.5232408 4.02058,-1.5310044 1.565,-0.00615 1.41756,-0.048472 3.55887,1.0215939 0.0597,0.029827 0.17679,-0.1416067 0.26023,-0.3809636 l 0.15171,-0.4351943 h 1.39453 1.39454 v 5.633232 5.6332324 h -1.41133 c -1.40542,0 -1.41202,-0.0016 -1.57766,-0.387285 -0.0915,-0.213007 -0.18153,-0.410042 -0.20011,-0.437856 -0.0186,-0.02781 -0.22389,0.08479 -0.45623,0.250227 -0.99762,0.710366 -2.40543,1.005989 -3.95254,0.829982 z m 2.87548,-3.632194 c 0.77893,-0.481402 1.1312,-1.18399 1.1312,-2.2561064 0,-0.7103673 -0.0726,-1.0320983 -0.32397,-1.4364168 -0.80591,-1.296089 -2.68028,-1.6110669 -3.89608,-0.6547154 -1.15481,0.9083728 -1.21973,3.0984046 -0.12129,4.0917276 0.80027,0.723689 2.26409,0.840202 3.21014,0.255511 z"
     id="path11" />
  <path
     style="fill:#ffffff;stroke:#000000;stroke-width:0.445513;stroke-linecap:round;stroke-linejoin:round;stroke-miterlimit:3.5;stroke-dashoffset:62.7243;paint-order:markers stroke fill"
     d="m 113.72087,9.7877406 v -5.633232 h 1.32697 1.32697 l 0.16203,0.4909463 c 0.0891,0.2700205 0.21777,0.5253954 0.28589,0.5674998 0.0681,0.042104 0.41616,-0.1465543 0.7734,-0.4192417 1.82162,-1.3904744 4.7887,-1.1572671 6.14145,0.482707 0.22577,0.2737035 0.54929,0.846199 0.71894,1.2722122 0.28705,0.7208263 0.31207,1.0554993 0.36052,4.8234548 l 0.0521,4.048886 h -1.91252 -1.91252 l -0.003,-3.485563 c -0.003,-3.1185228 -0.0312,-3.5475651 -0.27042,-4.0743702 -0.21033,-0.4632611 -0.37335,-0.6180808 -0.76454,-0.7260947 -0.59754,-0.164989 -1.40421,-0.00806 -1.8083,0.3517863 -0.61003,0.5432386 -0.67442,0.9776332 -0.67442,4.5497786 v 3.384463 h -1.90121 -1.90122 z"
     id="path12" />
  <path
     style="fill:#ffffff;stroke:#000000;stroke-width:0.445513;stroke-linecap:round;stroke-linejoin:round;stroke-miterlimit:3.5;stroke-dashoffset:62.7243;paint-order:markers stroke fill;fill-opacity:1"
     d="M 127.38146,7.745694 V 0.0704154 h 1.90121 1.90122 v 4.3036508 c 0,2.3670079 0.0513,4.2719663 0.11393,4.2332408 0.0627,-0.038725 0.71224,-1.0564114 1.44351,-2.2615245 l 1.32959,-2.1911146 2.08557,-7.96e-5 c 1.63066,-6.24e-5 2.06263,0.038318 1.98041,0.1759588 -0.0578,0.096821 -0.82206,1.2730272 -1.69828,2.6137911 -0.87622,1.340764 -1.59313,2.5017072 -1.59313,2.5798739 0,0.078167 0.8531,1.4369149 1.89577,3.0194409 l 1.89576,2.87732 h -2.21828 -2.21827 l -1.40267,-2.391764 c -0.77146,-1.31547 -1.45019,-2.392825 -1.50829,-2.394124 -0.0581,-0.0013 -0.10562,1.074996 -0.10562,2.391764 v 2.394124 h -1.90122 -1.90121 z"
     id="path13" />
</svg>
